<svg width="54" height="92" viewBox="0 0 54 92" fill="none" xmlns="http://www.w3.org/2000/svg">
<path d="M5.14226 86.2895L7.03163e-07 32H27V92L5.14226 86.2895Z" fill="#3E8BFF"/>
<path d="M48.8577 86.2895L54 32H27V92L48.8577 86.2895Z" fill="#3E8BFF"/>
<path d="M8.45651 55.6846L9.18122 63.4338H27.2784V55.6846H8.45651ZM7 40L7.73509 47.7492H27.2784V40H7ZM27.2784 75.8103L27.243 75.8193L18.2365 73.4889L17.6607 67.3086H9.54256L10.6755 79.4761L27.2412 83.8825L27.2784 83.8728V75.8103Z" fill="#333333"/>
<path d="M45.7984 55.6846L47.2582 40H27.0003V47.7493H38.3956L37.6597 55.6846H27.0003V63.4339H36.9585L36.0196 73.4841L27 75.8168V83.8788L43.5789 79.4761L43.7005 78.1668L45.6011 57.7655L45.7984 55.6846Z" fill="#333333"/>
<path d="M11.52 1.704C12.192 1.704 12.7787 1.8 13.28 1.992C13.7813 2.184 14.272 2.47733 14.752 2.872L13.68 4.12C13.0293 3.59733 12.3467 3.336 11.632 3.336C10.8107 3.336 10.1493 3.66667 9.648 4.328C9.15733 4.98933 8.912 6.02933 8.912 7.448C8.912 8.83467 9.15733 9.864 9.648 10.536C10.1387 11.208 10.8 11.544 11.632 11.544C12.0693 11.544 12.4587 11.4693 12.8 11.32C13.1413 11.16 13.504 10.936 13.888 10.648L14.88 11.896C14.5067 12.28 14.032 12.6 13.456 12.856C12.8907 13.112 12.256 13.24 11.552 13.24C10.592 13.24 9.744 13.016 9.008 12.568C8.272 12.12 7.70133 11.464 7.296 10.6C6.89067 9.72533 6.688 8.67467 6.688 7.448C6.688 6.24267 6.896 5.208 7.312 4.344C7.73867 3.48 8.31467 2.824 9.04 2.376C9.776 1.928 10.6027 1.704 11.52 1.704ZM19.4175 1.704C20.1962 1.704 20.8735 1.816 21.4495 2.04C22.0255 2.264 22.5642 2.60533 23.0655 3.064L22.0255 4.264C21.6308 3.93333 21.2308 3.69333 20.8255 3.544C20.4308 3.39467 20.0042 3.32 19.5455 3.32C19.0335 3.32 18.6175 3.43733 18.2975 3.672C17.9882 3.896 17.8335 4.216 17.8335 4.632C17.8335 4.90933 17.8922 5.13867 18.0095 5.32C18.1375 5.50133 18.3615 5.672 18.6815 5.832C19.0015 5.992 19.4762 6.168 20.1055 6.36C21.1935 6.70133 22.0095 7.128 22.5535 7.64C23.1082 8.14133 23.3855 8.87733 23.3855 9.848C23.3855 10.5093 23.2148 11.096 22.8735 11.608C22.5428 12.12 22.0628 12.52 21.4335 12.808C20.8042 13.096 20.0575 13.24 19.1935 13.24C18.3508 13.24 17.5935 13.1067 16.9215 12.84C16.2602 12.5627 15.6895 12.1893 15.2095 11.72L16.2975 10.504C16.7242 10.8667 17.1668 11.144 17.6255 11.336C18.0842 11.5173 18.5908 11.608 19.1455 11.608C19.7535 11.608 20.2442 11.464 20.6175 11.176C20.9908 10.888 21.1775 10.4827 21.1775 9.96C21.1775 9.64 21.1135 9.37867 20.9855 9.176C20.8575 8.96267 20.6388 8.776 20.3295 8.616C20.0202 8.44533 19.5722 8.26933 18.9855 8.088C17.8122 7.72533 16.9642 7.288 16.4415 6.776C15.9188 6.264 15.6575 5.592 15.6575 4.76C15.6575 4.152 15.8175 3.61867 16.1375 3.16C16.4575 2.70133 16.9002 2.344 17.4655 2.088C18.0415 1.832 18.6922 1.704 19.4175 1.704ZM28.1988 1.704C28.9774 1.704 29.6548 1.816 30.2308 2.04C30.8068 2.264 31.3454 2.60533 31.8468 3.064L30.8068 4.264C30.4121 3.93333 30.0121 3.69333 29.6068 3.544C29.2121 3.39467 28.7854 3.32 28.3268 3.32C27.8148 3.32 27.3988 3.43733 27.0788 3.672C26.7694 3.896 26.6148 4.216 26.6148 4.632C26.6148 4.90933 26.6734 5.13867 26.7908 5.32C26.9188 5.50133 27.1428 5.672 27.4628 5.832C27.7828 5.992 28.2574 6.168 28.8868 6.36C29.9748 6.70133 30.7908 7.128 31.3348 7.64C31.8894 8.14133 32.1667 8.87733 32.1667 9.848C32.1667 10.5093 31.9961 11.096 31.6548 11.608C31.3241 12.12 30.8441 12.52 30.2148 12.808C29.5854 13.096 28.8388 13.24 27.9748 13.24C27.1321 13.24 26.3748 13.1067 25.7028 12.84C25.0414 12.5627 24.4708 12.1893 23.9908 11.72L25.0788 10.504C25.5054 10.8667 25.9481 11.144 26.4068 11.336C26.8654 11.5173 27.3721 11.608 27.9268 11.608C28.5348 11.608 29.0254 11.464 29.3988 11.176C29.7721 10.888 29.9588 10.4827 29.9588 9.96C29.9588 9.64 29.8948 9.37867 29.7668 9.176C29.6388 8.96267 29.4201 8.776 29.1108 8.616C28.8014 8.44533 28.3534 8.26933 27.7668 8.088C26.5934 7.72533 25.7454 7.288 25.2228 6.776C24.7001 6.264 24.4388 5.592 24.4388 4.76C24.4388 4.152 24.5988 3.61867 24.9188 3.16C25.2388 2.70133 25.6814 2.344 26.2468 2.088C26.8228 1.832 27.4734 1.704 28.1988 1.704ZM36.3839 2.04C37.0985 2.04 37.7119 2.16267 38.2239 2.408C38.7465 2.65333 39.1359 2.984 39.3919 3.4C39.6585 3.816 39.7919 4.27467 39.7919 4.776C39.7919 5.42667 39.6052 5.97067 39.2319 6.408C38.8585 6.83467 38.3465 7.13333 37.6959 7.304C38.4105 7.368 38.9972 7.624 39.4559 8.072C39.9145 8.52 40.1439 9.13867 40.1439 9.928C40.1439 10.5467 39.9839 11.1067 39.6639 11.608C39.3545 12.1093 38.9065 12.5093 38.3199 12.808C37.7332 13.096 37.0399 13.24 36.2399 13.24C34.7679 13.24 33.6052 12.7227 32.7519 11.688L33.8879 10.6C34.2505 10.9627 34.6079 11.2293 34.9599 11.4C35.3119 11.56 35.7012 11.64 36.1279 11.64C36.7039 11.64 37.1625 11.48 37.5039 11.16C37.8559 10.8293 38.0319 10.3867 38.0319 9.832C38.0319 9.21333 37.8665 8.77067 37.5359 8.504C37.2159 8.23733 36.7359 8.104 36.0959 8.104H35.2479L35.4879 6.648H36.0639C36.5865 6.648 37.0025 6.504 37.3119 6.216C37.6319 5.928 37.7919 5.528 37.7919 5.016C37.7919 4.57867 37.6479 4.23733 37.3599 3.992C37.0719 3.736 36.6879 3.608 36.2079 3.608C35.7919 3.608 35.4132 3.688 35.0719 3.848C34.7305 3.99733 34.3892 4.232 34.0479 4.552L33.0079 3.416C33.9785 2.49867 35.1039 2.04 36.3839 2.04Z" fill="#3E8BFF"/>
</svg>
