<svg width="24" height="22" viewBox="0 0 24 22" fill="none" xmlns="http://www.w3.org/2000/svg">
<g clip-path="url(#clip0_25_305)">
<path d="M17.3757 3.97766C15.4396 3.97766 13.3545 4.33123 11.9148 5.30355C10.4751 4.33123 8.39001 3.97766 6.45386 3.97766C5.01416 3.97766 3.48509 4.17213 2.20426 4.67596C1.47944 4.96766 0.99292 5.59525 0.99292 6.31123V16.2819C0.99292 17.4311 2.20426 18.2796 3.45531 17.9968C4.42835 17.7758 5.46096 17.6786 6.45386 17.6786C8.00278 17.6786 9.65099 17.9084 10.9815 18.4918C11.5772 18.7569 12.2524 18.7569 12.8382 18.4918C14.1687 17.8995 15.8169 17.6786 17.3658 17.6786C18.3587 17.6786 19.3913 17.7758 20.3644 17.9968C21.6154 18.2885 22.8267 17.4399 22.8267 16.2819V6.31123C22.8267 5.59525 22.3402 4.96766 21.6154 4.67596C20.3445 4.17213 18.8154 3.97766 17.3757 3.97766ZM20.8509 15.2301C20.8509 15.7869 20.275 16.1936 19.6594 16.0963C18.9147 15.9726 18.1403 15.9195 17.3757 15.9195C15.6878 15.9195 13.2552 16.4941 11.9148 17.2454V7.07141C13.2552 6.32007 15.6878 5.74552 17.3757 5.74552C18.2892 5.74552 19.1927 5.82507 20.0566 5.99302C20.5133 6.08141 20.8509 6.44382 20.8509 6.85927V15.2301Z" fill="url(#paint0_linear_25_305)"/>
<path d="M13.8808 9.73205C13.5631 9.73205 13.2752 9.55526 13.1759 9.2724C13.0468 8.92767 13.2652 8.54758 13.6525 8.44151C15.1815 7.99955 17.1574 7.85812 18.9744 8.04374C19.3815 8.08794 19.6793 8.41499 19.6297 8.7774C19.5801 9.13982 19.2127 9.40499 18.8056 9.3608C17.1971 9.19285 15.4397 9.32544 14.1092 9.70553C14.0298 9.71437 13.9503 9.73205 13.8808 9.73205Z" fill="url(#paint1_linear_25_305)"/>
<path d="M13.8808 12.0832C13.5631 12.0832 13.2752 11.9065 13.1759 11.6236C13.0468 11.2789 13.2652 10.8988 13.6525 10.7927C15.1716 10.3507 17.1574 10.2093 18.9744 10.3949C19.3815 10.4391 19.6793 10.7662 19.6297 11.1286C19.5801 11.491 19.2127 11.7562 18.8056 11.712C17.1971 11.544 15.4397 11.6766 14.1092 12.0567C14.0298 12.0744 13.9503 12.0832 13.8808 12.0832Z" fill="url(#paint2_linear_25_305)"/>
<path d="M13.8808 14.4346C13.5631 14.4346 13.2752 14.2578 13.1759 13.9749C13.0468 13.6302 13.2652 13.2501 13.6525 13.144C15.1716 12.7021 17.1574 12.5606 18.9744 12.7463C19.3815 12.7905 19.6793 13.1175 19.6297 13.4799C19.5801 13.8423 19.2127 14.0987 18.8056 14.0633C17.1971 13.8954 15.4397 14.028 14.1092 14.408C14.0298 14.4257 13.9503 14.4346 13.8808 14.4346Z" fill="url(#paint3_linear_25_305)"/>
</g>
<defs>
<linearGradient id="paint0_linear_25_305" x1="11.9098" y1="3.97766" x2="11.9098" y2="18.6907" gradientUnits="userSpaceOnUse">
<stop stop-color="#3E8BFF"/>
<stop offset="0.9999" stop-color="#3935E0"/>
<stop offset="1" stop-color="#67DD0A"/>
</linearGradient>
<linearGradient id="paint1_linear_25_305" x1="16.3869" y1="7.96411" x2="16.3869" y2="9.73205" gradientUnits="userSpaceOnUse">
<stop stop-color="#3E8BFF"/>
<stop offset="0.9999" stop-color="#3935E0"/>
<stop offset="1" stop-color="#67DD0A"/>
</linearGradient>
<linearGradient id="paint2_linear_25_305" x1="16.3869" y1="10.3153" x2="16.3869" y2="12.0832" gradientUnits="userSpaceOnUse">
<stop stop-color="#3E8BFF"/>
<stop offset="0.9999" stop-color="#3935E0"/>
<stop offset="1" stop-color="#67DD0A"/>
</linearGradient>
<linearGradient id="paint3_linear_25_305" x1="16.3869" y1="12.6666" x2="16.3869" y2="14.4346" gradientUnits="userSpaceOnUse">
<stop stop-color="#3E8BFF"/>
<stop offset="0.9999" stop-color="#3935E0"/>
<stop offset="1" stop-color="#67DD0A"/>
</linearGradient>
<clipPath id="clip0_25_305">
<rect width="23.8295" height="21.2143" fill="white"/>
</clipPath>
</defs>
</svg>
