<svg width="60" height="91" viewBox="0 0 60 91" fill="none" xmlns="http://www.w3.org/2000/svg">
<path d="M12.5 44.75C12.5 42.4294 13.4219 40.2038 15.0628 38.5628C16.7038 36.9219 18.9294 36 21.25 36H30V53.5H21.25C18.9294 53.5 16.7038 52.5781 15.0628 50.9372C13.4219 49.2962 12.5 47.0706 12.5 44.75Z" stroke="#3E8BFF" stroke-width="2" stroke-linecap="round" stroke-linejoin="round"/>
<path d="M30 36H38.75C39.8991 36 41.0369 36.2263 42.0985 36.6661C43.1601 37.1058 44.1247 37.7503 44.9372 38.5628C45.7497 39.3753 46.3942 40.3399 46.8339 41.4015C47.2737 42.4631 47.5 43.6009 47.5 44.75C47.5 45.8991 47.2737 47.0369 46.8339 48.0985C46.3942 49.1601 45.7497 50.1247 44.9372 50.9372C44.1247 51.7497 43.1601 52.3942 42.0985 52.8339C41.0369 53.2737 39.8991 53.5 38.75 53.5H30V36Z" stroke="#3E8BFF" stroke-width="2" stroke-linecap="round" stroke-linejoin="round"/>
<path d="M30 62.25C30 61.1009 30.2263 59.9631 30.6661 58.9015C31.1058 57.8399 31.7503 56.8753 32.5628 56.0628C33.3753 55.2503 34.3399 54.6058 35.4015 54.1661C36.4631 53.7263 37.6009 53.5 38.75 53.5C39.8991 53.5 41.0369 53.7263 42.0985 54.1661C43.1601 54.6058 44.1247 55.2503 44.9372 56.0628C45.7497 56.8753 46.3942 57.8399 46.8339 58.9015C47.2737 59.9631 47.5 61.1009 47.5 62.25C47.5 63.3991 47.2737 64.5369 46.8339 65.5985C46.3942 66.6601 45.7497 67.6247 44.9372 68.4372C44.1247 69.2497 43.1601 69.8942 42.0985 70.3339C41.0369 70.7737 39.8991 71 38.75 71C37.6009 71 36.4631 70.7737 35.4015 70.3339C34.3399 69.8942 33.3753 69.2497 32.5628 68.4372C31.7503 67.6247 31.1058 66.6601 30.6661 65.5985C30.2263 64.5369 30 63.3991 30 62.25V62.25Z" stroke="#3E8BFF" stroke-width="2" stroke-linecap="round" stroke-linejoin="round"/>
<path d="M12.5 79.75C12.5 77.4294 13.4219 75.2038 15.0628 73.5628C16.7038 71.9219 18.9294 71 21.25 71H30V79.75C30 82.0706 29.0781 84.2962 27.4372 85.9372C25.7962 87.5781 23.5706 88.5 21.25 88.5C18.9294 88.5 16.7038 87.5781 15.0628 85.9372C13.4219 84.2962 12.5 82.0706 12.5 79.75Z" stroke="#3E8BFF" stroke-width="2" stroke-linecap="round" stroke-linejoin="round"/>
<path d="M12.5 62.25C12.5 59.9294 13.4219 57.7038 15.0628 56.0628C16.7038 54.4219 18.9294 53.5 21.25 53.5H30V71H21.25C18.9294 71 16.7038 70.0781 15.0628 68.4372C13.4219 66.7962 12.5 64.5706 12.5 62.25Z" stroke="#3E8BFF" stroke-width="2" stroke-linecap="round" stroke-linejoin="round"/>
<path d="M10.296 13V1.944H16.552L16.328 3.512H12.408V6.824H15.816V8.392H12.408V13H10.296ZM19.5925 4.536V13H17.5445V4.536H19.5925ZM18.5525 0.247999C18.9365 0.247999 19.2458 0.370666 19.4805 0.615999C19.7258 0.850666 19.8485 1.144 19.8485 1.496C19.8485 1.848 19.7258 2.14133 19.4805 2.376C19.2458 2.61067 18.9365 2.728 18.5525 2.728C18.1792 2.728 17.8698 2.61067 17.6245 2.376C17.3898 2.14133 17.2725 1.848 17.2725 1.496C17.2725 1.144 17.3898 0.850666 17.6245 0.615999C17.8698 0.370666 18.1792 0.247999 18.5525 0.247999ZM29.4201 4.984C28.8761 5.176 28.0601 5.272 26.9721 5.272C27.4948 5.50667 27.8788 5.8 28.1241 6.152C28.3801 6.49333 28.5081 6.92533 28.5081 7.448C28.5081 8.00267 28.3695 8.49333 28.0921 8.92C27.8255 9.34667 27.4308 9.68267 26.9081 9.928C26.3961 10.1733 25.7935 10.296 25.1001 10.296C24.7161 10.296 24.3801 10.2533 24.0921 10.168C23.8575 10.328 23.7401 10.536 23.7401 10.792C23.7401 11.1867 24.0815 11.384 24.7641 11.384H26.0601C26.6788 11.384 27.2175 11.4853 27.6761 11.688C28.1455 11.8907 28.5081 12.1787 28.7641 12.552C29.0201 12.9147 29.1481 13.3253 29.1481 13.784C29.1481 14.6373 28.7855 15.2987 28.0601 15.768C27.3348 16.248 26.2895 16.488 24.9241 16.488C23.9428 16.488 23.1695 16.3867 22.6041 16.184C22.0495 15.9813 21.6548 15.688 21.4201 15.304C21.1855 14.92 21.0681 14.4293 21.0681 13.832H22.9081C22.9081 14.1307 22.9615 14.3653 23.0681 14.536C23.1855 14.7067 23.3881 14.8347 23.6761 14.92C23.9748 15.0053 24.4015 15.048 24.9561 15.048C25.7348 15.048 26.2841 14.952 26.6041 14.76C26.9241 14.568 27.0841 14.2907 27.0841 13.928C27.0841 13.608 26.9615 13.3573 26.7161 13.176C26.4708 13.0053 26.1135 12.92 25.6441 12.92H24.3641C23.5641 12.92 22.9615 12.7653 22.5561 12.456C22.1508 12.1467 21.9481 11.7573 21.9481 11.288C21.9481 10.9893 22.0335 10.7013 22.2041 10.424C22.3855 10.1467 22.6308 9.912 22.9401 9.72C22.4281 9.45333 22.0495 9.128 21.8041 8.744C21.5695 8.34933 21.4521 7.88 21.4521 7.336C21.4521 6.728 21.6015 6.19467 21.9001 5.736C22.1988 5.27733 22.6095 4.92533 23.1321 4.68C23.6655 4.424 24.2735 4.296 24.9561 4.296C25.8521 4.31733 26.5721 4.25333 27.1161 4.104C27.6708 3.944 28.2681 3.69333 28.9081 3.352L29.4201 4.984ZM24.9881 5.688C24.5295 5.688 24.1668 5.83733 23.9001 6.136C23.6441 6.424 23.5161 6.81333 23.5161 7.304C23.5161 7.816 23.6495 8.22133 23.9161 8.52C24.1828 8.81867 24.5508 8.968 25.0201 8.968C25.5108 8.968 25.8841 8.824 26.1401 8.536C26.3961 8.23733 26.5241 7.82133 26.5241 7.288C26.5241 6.22133 26.0121 5.688 24.9881 5.688ZM39.6299 4.296C40.3125 4.296 40.8565 4.53067 41.2619 5C41.6672 5.45867 41.8699 6.08267 41.8699 6.872V13H39.8219V7.192C39.8219 6.28533 39.5125 5.832 38.8939 5.832C38.5632 5.832 38.2752 5.93867 38.0299 6.152C37.7952 6.35467 37.5499 6.67467 37.2939 7.112V13H35.2459V7.192C35.2459 6.28533 34.9365 5.832 34.3179 5.832C33.9765 5.832 33.6832 5.93867 33.4379 6.152C33.2032 6.35467 32.9579 6.67467 32.7019 7.112V13H30.6539V4.536H32.4299L32.5899 5.64C33.2299 4.744 34.0459 4.296 35.0379 4.296C35.5285 4.296 35.9499 4.424 36.3019 4.68C36.6645 4.92533 36.9259 5.272 37.0859 5.72C37.4272 5.26133 37.8005 4.90933 38.2059 4.664C38.6219 4.41867 39.0965 4.296 39.6299 4.296ZM50.5036 10.76C50.5036 11.0907 50.5516 11.336 50.6476 11.496C50.7543 11.6453 50.9196 11.7627 51.1436 11.848L50.7116 13.208C50.2316 13.1653 49.837 13.048 49.5276 12.856C49.229 12.664 48.9996 12.3707 48.8396 11.976C48.5516 12.4027 48.189 12.7227 47.7516 12.936C47.325 13.1387 46.845 13.24 46.3116 13.24C45.469 13.24 44.8023 13 44.3116 12.52C43.821 12.04 43.5756 11.4107 43.5756 10.632C43.5756 9.71467 43.9063 9.016 44.5676 8.536C45.2396 8.04533 46.1943 7.8 47.4316 7.8H48.4876V7.32C48.4876 6.776 48.3596 6.39733 48.1036 6.184C47.8583 5.96 47.4583 5.848 46.9036 5.848C46.285 5.848 45.5383 5.99733 44.6636 6.296L44.1836 4.904C45.2396 4.49867 46.2636 4.296 47.2556 4.296C49.421 4.296 50.5036 5.26667 50.5036 7.208V10.76ZM46.8556 11.752C47.549 11.752 48.093 11.4053 48.4876 10.712V9H47.6396C46.317 9 45.6556 9.49067 45.6556 10.472C45.6556 10.8773 45.757 11.192 45.9596 11.416C46.1623 11.64 46.461 11.752 46.8556 11.752Z" fill="#3E8BFF"/>
</svg>
