<svg width="60" height="91" viewBox="0 0 60 91" fill="none" xmlns="http://www.w3.org/2000/svg">
<path d="M58.865 58.3249L32.6675 32.1299C31.9412 31.4063 30.9577 31 29.9325 31C28.9073 31 27.9238 31.4063 27.1975 32.1299L21.77 37.5674L28.67 44.4674C29.4841 44.1916 30.3592 44.1497 31.1959 44.3464C32.0326 44.5431 32.7973 44.9705 33.4033 45.5801C34.0092 46.1897 34.432 46.957 34.6237 47.7948C34.8154 48.6327 34.7682 49.5075 34.4875 50.3199L41.1325 56.9699C42.1159 56.628 43.1863 56.6302 44.1684 56.9761C45.1504 57.3221 45.9858 57.9913 46.5378 58.8741C47.0897 59.757 47.3255 60.8011 47.2065 61.8355C47.0874 62.8698 46.6206 63.8331 45.8825 64.5674C45.456 64.9947 44.9493 65.3336 44.3917 65.5649C43.834 65.7961 43.2362 65.9152 42.6325 65.9152C42.0288 65.9152 41.431 65.7961 40.8733 65.5649C40.3156 65.3336 39.809 64.9947 39.3825 64.5674C38.7433 63.9264 38.3067 63.1116 38.1272 62.2243C37.9476 61.337 38.0329 60.4166 38.3725 59.5774L32.15 53.3874V69.6999C32.59 69.9149 33.005 70.2074 33.37 70.5699C34.2262 71.4349 34.7064 72.6029 34.7064 73.8199C34.7064 75.037 34.2262 76.2049 33.37 77.0699C32.9419 77.4985 32.4335 77.8384 31.8739 78.0703C31.3143 78.3023 30.7145 78.4217 30.1087 78.4217C29.503 78.4217 28.9032 78.3023 28.3436 78.0703C27.784 77.8384 27.2756 77.4985 26.8475 77.0699C26.4201 76.644 26.081 76.1379 25.8496 75.5806C25.6183 75.0233 25.4992 74.4258 25.4992 73.8224C25.4992 73.219 25.6183 72.6216 25.8496 72.0643C26.081 71.507 26.4201 71.0009 26.8475 70.5749C27.3025 70.1249 27.815 69.7849 28.36 69.5599V53.0874C27.7988 52.858 27.2886 52.5195 26.8591 52.0917C26.4296 51.6638 26.0892 51.1549 25.8576 50.5946C25.626 50.0343 25.5079 49.4336 25.51 48.8273C25.5121 48.221 25.6345 47.6211 25.87 47.0624L19.09 40.2499L1.125 58.2024C-0.375 59.7149 -0.375 62.1624 1.125 63.6749L27.325 89.8674C27.6837 90.2265 28.1097 90.5113 28.5785 90.7057C29.0474 90.9 29.55 91 30.0575 91C30.565 91 31.0676 90.9 31.5365 90.7057C32.0053 90.5113 32.4313 90.2265 32.79 89.8674L58.865 63.7924C59.2247 63.4338 59.5101 63.0078 59.7049 62.5387C59.8996 62.0695 59.9999 61.5666 59.9999 61.0587C59.9999 60.5508 59.8996 60.0478 59.7049 59.5787C59.5101 59.1096 59.2247 58.6835 58.865 58.3249Z" fill="#3E8BFF"/>
<path d="M23.76 1.704C24.4853 1.704 25.1253 1.816 25.68 2.04C26.2453 2.25333 26.7787 2.57333 27.28 3L26.144 4.184C25.7493 3.87467 25.376 3.65067 25.024 3.512C24.6827 3.37333 24.2827 3.304 23.824 3.304C22.9707 3.304 22.272 3.64533 21.728 4.328C21.184 5.01067 20.912 6.056 20.912 7.464C20.912 8.936 21.1253 9.99733 21.552 10.648C21.9893 11.2987 22.6507 11.624 23.536 11.624C24.208 11.624 24.7947 11.48 25.296 11.192V8.312H23.632L23.408 6.744H27.376V12.152C26.1813 12.8773 24.912 13.24 23.568 13.24C21.9893 13.24 20.7787 12.7493 19.936 11.768C19.104 10.7867 18.688 9.352 18.688 7.464C18.688 6.25867 18.912 5.224 19.36 4.36C19.8187 3.48533 20.432 2.824 21.2 2.376C21.968 1.928 22.8213 1.704 23.76 1.704ZM31.6111 1.944V13H29.4991V1.944H31.6111ZM41.3063 1.944L41.0823 3.624H38.2023V13H36.0743V3.624H33.0983V1.944H41.3063Z" fill="#3E8BFF"/>
</svg>
