<svg width="256" height="250" viewBox="0 0 256 250" fill="none" xmlns="http://www.w3.org/2000/svg">
<path d="M127.505 0.5C57.095 0.5 0 57.585 0 128.005C0 184.341 36.534 232.135 87.196 248.995C93.568 250.175 95.908 246.229 95.908 242.861C95.908 239.821 95.789 229.776 95.735 219.122C60.262 226.835 52.777 204.078 52.777 204.078C46.977 189.34 38.62 185.422 38.62 185.422C27.052 177.508 39.492 177.67 39.492 177.67C52.296 178.57 59.038 190.81 59.038 190.81C70.41 210.303 88.866 204.667 96.142 201.41C97.286 193.168 100.591 187.544 104.237 184.36C75.917 181.135 46.145 170.202 46.145 121.346C46.145 107.426 51.126 96.051 59.283 87.122C57.959 83.91 53.595 70.942 60.518 53.379C60.518 53.379 71.225 49.952 95.591 66.449C105.761 63.623 116.669 62.207 127.505 62.159C138.341 62.207 149.257 63.623 159.447 66.449C183.784 49.952 194.476 53.379 194.476 53.379C201.416 70.942 197.05 83.91 195.726 87.122C203.901 96.051 208.848 107.425 208.848 121.346C208.848 170.318 179.02 181.102 150.628 184.258C155.201 188.215 159.276 195.975 159.276 207.87C159.276 224.93 159.128 238.661 159.128 242.861C159.128 246.254 161.423 250.23 167.887 248.978C218.521 232.099 255.009 184.322 255.009 128.005C255.009 57.585 197.922 0.5 127.505 0.5Z" fill="#3E8BFF"/>
</svg>
