<svg width="53" height="91" viewBox="0 0 53 91" fill="none" xmlns="http://www.w3.org/2000/svg">
<path d="M5.48942 84.3461L0.734375 31H53.0004L48.2387 84.3395L26.8344 90.2734L5.48942 84.3461Z" fill="#3E8BFF"/>
<path d="M26.8674 41.9063H26.8476H10.4618L10.6199 43.6582L12.2268 61.6905H26.8476H26.8674H34.9022L34.1448 70.1732L26.8476 72.1489H26.841L19.5504 70.1797L19.0894 64.9637H15.5461H12.5166L13.432 75.2377L26.8344 78.9588L26.8674 78.9456L40.2566 75.2377L40.3554 74.1313L41.8965 56.9025L42.0545 55.1506H40.2895H26.8674H26.8476H18.2069L17.6141 48.4461H26.8476H26.8674H42.6275H42.6473L42.779 46.9775L43.0754 43.6582L43.2334 41.9063H26.8674Z" fill="#333333"/>
<path d="M9.344 13V8.056H5.408V13H3.296V1.944H5.408V6.376H9.344V1.944H11.472V13H9.344ZM21.15 1.944L20.926 3.624H18.046V13H15.918V3.624H12.942V1.944H21.15ZM32.6979 13H30.6339L30.3459 8.376C30.2499 6.72267 30.2019 5.41067 30.2019 4.44V3.864L28.1859 11.8H26.1859L24.0419 3.848C24.0632 4.552 24.0739 5.08533 24.0739 5.448C24.0739 6.41867 24.0419 7.416 23.9779 8.44L23.7059 13H21.6579L22.5379 1.944H25.2579L27.2259 9.688L29.0819 1.944H31.8339L32.6979 13ZM36.8455 1.944V11.272H41.2775L41.0375 13H34.7335V1.944H36.8455ZM48.399 3.752H44.367V6.424C44.9003 6.15733 45.4443 6.024 45.999 6.024C46.5963 6.024 47.1297 6.16267 47.599 6.44C48.0683 6.71733 48.431 7.11733 48.687 7.64C48.9537 8.16267 49.087 8.78133 49.087 9.496C49.087 10.232 48.9217 10.8827 48.591 11.448C48.2603 12.0133 47.791 12.456 47.183 12.776C46.575 13.0853 45.871 13.24 45.071 13.24C44.3563 13.24 43.7217 13.112 43.167 12.856C42.623 12.5893 42.127 12.2107 41.679 11.72L42.847 10.632C43.4657 11.3147 44.191 11.656 45.023 11.656C45.631 11.656 46.1057 11.4693 46.447 11.096C46.799 10.7227 46.975 10.1893 46.975 9.496C46.975 8.16267 46.399 7.496 45.247 7.496C45.0017 7.496 44.7723 7.528 44.559 7.592C44.3457 7.64533 44.111 7.736 43.855 7.864H42.399V2.232H48.639L48.399 3.752Z" fill="#3E8BFF"/>
</svg>
