<svg width="75" height="91" viewBox="0 0 75 91" fill="none" xmlns="http://www.w3.org/2000/svg">
<g clip-path="url(#clip0_76_55)">
<path d="M67 31H7V91H67V31Z" fill="#3E8BFF"/>
<path d="M37 58.5C37 70.373 37 77.0397 37 78.5C37 80.6905 35.6928 83.5 32 83.5C26.0365 83.5 25.75 78.5 25.75 78.5M58.9749 64.7901C57.4747 62.2634 55.486 61 53.0088 61C49.1409 61 47 63.5 47 66C47 68.5 48.25 71 53.271 72.25C56.4662 73.0454 59.5 74.75 59.5 78.5C59.5 82.25 56.2114 83.5 53.25 83.5C49.4654 83.5 46.9654 81.8333 45.75 78.5" stroke="#333333" stroke-width="2"/>
</g>
<path d="M4.76 11.384C4.76 12.568 4.47733 13.4587 3.912 14.056C3.35733 14.664 2.55733 15.1387 1.512 15.48L0.952 13.96C1.42133 13.7787 1.77333 13.5707 2.008 13.336C2.25333 13.112 2.41867 12.8453 2.504 12.536C2.58933 12.216 2.632 11.8053 2.632 11.304V1.944H4.76V11.384ZM13.4724 10.76C13.4724 11.0907 13.5204 11.336 13.6164 11.496C13.723 11.6453 13.8884 11.7627 14.1124 11.848L13.6804 13.208C13.2004 13.1653 12.8057 13.048 12.4964 12.856C12.1977 12.664 11.9684 12.3707 11.8084 11.976C11.5204 12.4027 11.1577 12.7227 10.7204 12.936C10.2937 13.1387 9.81371 13.24 9.28038 13.24C8.43771 13.24 7.77104 13 7.28038 12.52C6.78971 12.04 6.54438 11.4107 6.54438 10.632C6.54438 9.71467 6.87504 9.016 7.53638 8.536C8.20838 8.04533 9.16304 7.8 10.4004 7.8H11.4564V7.32C11.4564 6.776 11.3284 6.39733 11.0724 6.184C10.827 5.96 10.427 5.848 9.87238 5.848C9.25371 5.848 8.50704 5.99733 7.63238 6.296L7.15238 4.904C8.20838 4.49867 9.23238 4.296 10.2244 4.296C12.3897 4.296 13.4724 5.26667 13.4724 7.208V10.76ZM9.82438 11.752C10.5177 11.752 11.0617 11.4053 11.4564 10.712V9H10.6084C9.28571 9 8.62438 9.49067 8.62438 10.472C8.62438 10.8773 8.72571 11.192 8.92838 11.416C9.13104 11.64 9.42971 11.752 9.82438 11.752ZM22.5164 4.536L19.7644 13H17.3164L14.5164 4.536H16.7404L18.5484 11.352L20.4044 4.536H22.5164ZM29.738 10.76C29.738 11.0907 29.786 11.336 29.882 11.496C29.9887 11.6453 30.154 11.7627 30.378 11.848L29.946 13.208C29.466 13.1653 29.0713 13.048 28.762 12.856C28.4633 12.664 28.234 12.3707 28.074 11.976C27.786 12.4027 27.4233 12.7227 26.986 12.936C26.5593 13.1387 26.0793 13.24 25.546 13.24C24.7033 13.24 24.0367 13 23.546 12.52C23.0553 12.04 22.81 11.4107 22.81 10.632C22.81 9.71467 23.1407 9.016 23.802 8.536C24.474 8.04533 25.4287 7.8 26.666 7.8H27.722V7.32C27.722 6.776 27.594 6.39733 27.338 6.184C27.0927 5.96 26.6927 5.848 26.138 5.848C25.5193 5.848 24.7727 5.99733 23.898 6.296L23.418 4.904C24.474 4.49867 25.498 4.296 26.49 4.296C28.6553 4.296 29.738 5.26667 29.738 7.208V10.76ZM26.09 11.752C26.7833 11.752 27.3273 11.4053 27.722 10.712V9H26.874C25.5513 9 24.89 9.49067 24.89 10.472C24.89 10.8773 24.9913 11.192 25.194 11.416C25.3967 11.64 25.6953 11.752 26.09 11.752ZM35.4644 1.704C36.243 1.704 36.9204 1.816 37.4964 2.04C38.0724 2.264 38.611 2.60533 39.1124 3.064L38.0724 4.264C37.6777 3.93333 37.2777 3.69333 36.8724 3.544C36.4777 3.39467 36.051 3.32 35.5924 3.32C35.0804 3.32 34.6644 3.43733 34.3444 3.672C34.035 3.896 33.8804 4.216 33.8804 4.632C33.8804 4.90933 33.939 5.13867 34.0564 5.32C34.1844 5.50133 34.4084 5.672 34.7284 5.832C35.0484 5.992 35.523 6.168 36.1524 6.36C37.2404 6.70133 38.0564 7.128 38.6004 7.64C39.155 8.14133 39.4324 8.87733 39.4324 9.848C39.4324 10.5093 39.2617 11.096 38.9204 11.608C38.5897 12.12 38.1097 12.52 37.4804 12.808C36.851 13.096 36.1044 13.24 35.2404 13.24C34.3977 13.24 33.6404 13.1067 32.9684 12.84C32.307 12.5627 31.7364 12.1893 31.2564 11.72L32.3444 10.504C32.771 10.8667 33.2137 11.144 33.6724 11.336C34.131 11.5173 34.6377 11.608 35.1924 11.608C35.8004 11.608 36.291 11.464 36.6644 11.176C37.0377 10.888 37.2244 10.4827 37.2244 9.96C37.2244 9.64 37.1604 9.37867 37.0324 9.176C36.9044 8.96267 36.6857 8.776 36.3764 8.616C36.067 8.44533 35.619 8.26933 35.0324 8.088C33.859 7.72533 33.011 7.288 32.4884 6.776C31.9657 6.264 31.7044 5.592 31.7044 4.76C31.7044 4.152 31.8644 3.61867 32.1844 3.16C32.5044 2.70133 32.947 2.344 33.5124 2.088C34.0884 1.832 34.739 1.704 35.4644 1.704ZM44.5775 4.296C45.1322 4.296 45.6282 4.376 46.0655 4.536C46.5135 4.696 46.9348 4.94667 47.3295 5.288L46.4175 6.52C46.1295 6.30667 45.8522 6.152 45.5855 6.056C45.3188 5.96 45.0255 5.912 44.7055 5.912C43.4362 5.912 42.8015 6.87733 42.8015 8.808C42.8015 9.78933 42.9668 10.4987 43.2975 10.936C43.6282 11.3627 44.0975 11.576 44.7055 11.576C45.0042 11.576 45.2762 11.528 45.5215 11.432C45.7775 11.336 46.0762 11.1813 46.4175 10.968L47.3295 12.264C46.5295 12.9147 45.6175 13.24 44.5935 13.24C43.7828 13.24 43.0788 13.064 42.4815 12.712C41.8842 12.3493 41.4255 11.8373 41.1055 11.176C40.7855 10.5147 40.6255 9.736 40.6255 8.84C40.6255 7.944 40.7855 7.15467 41.1055 6.472C41.4255 5.77867 41.8842 5.24533 42.4815 4.872C43.0788 4.488 43.7775 4.296 44.5775 4.296ZM52.9861 4.312C53.2955 4.312 53.5781 4.34933 53.8341 4.424L53.4821 6.408C53.2261 6.344 52.9755 6.312 52.7301 6.312C52.2288 6.312 51.8341 6.49333 51.5461 6.856C51.2581 7.208 51.0288 7.752 50.8581 8.488V13H48.8101V4.536H50.5861L50.7781 6.2C50.9808 5.592 51.2741 5.128 51.6581 4.808C52.0421 4.47733 52.4848 4.312 52.9861 4.312ZM57.155 4.536V13H55.107V4.536H57.155ZM56.115 0.247999C56.499 0.247999 56.8083 0.370666 57.043 0.615999C57.2883 0.850666 57.411 1.144 57.411 1.496C57.411 1.848 57.2883 2.14133 57.043 2.376C56.8083 2.61067 56.499 2.728 56.115 2.728C55.7417 2.728 55.4323 2.61067 55.187 2.376C54.9523 2.14133 54.835 1.848 54.835 1.496C54.835 1.144 54.9523 0.850666 55.187 0.615999C55.4323 0.370666 55.7417 0.247999 56.115 0.247999ZM64.0066 4.296C65.0733 4.296 65.8626 4.68533 66.3746 5.464C66.8866 6.24267 67.1426 7.336 67.1426 8.744C67.1426 9.61867 67.0093 10.3973 66.7426 11.08C66.4866 11.752 66.1026 12.28 65.5906 12.664C65.0893 13.048 64.492 13.24 63.7986 13.24C62.9026 13.24 62.1933 12.9307 61.6706 12.312V16.264L59.6226 16.488V4.536H61.4146L61.5266 5.576C61.8573 5.14933 62.236 4.82933 62.6626 4.616C63.0893 4.40267 63.5373 4.296 64.0066 4.296ZM63.2226 11.672C64.4066 11.672 64.9986 10.7013 64.9986 8.76C64.9986 7.72533 64.8653 6.97867 64.5986 6.52C64.332 6.06133 63.932 5.832 63.3986 5.832C63.0573 5.832 62.7373 5.93867 62.4386 6.152C62.14 6.35467 61.884 6.632 61.6706 6.984V10.792C62.0653 11.3787 62.5826 11.672 63.2226 11.672ZM74.0019 12.6C73.7032 12.8133 73.3672 12.9733 72.9939 13.08C72.6312 13.1867 72.2579 13.24 71.8739 13.24C71.0419 13.2293 70.4072 12.9947 69.9699 12.536C69.5432 12.0667 69.3299 11.3787 69.3299 10.472V6.008H68.0019V4.536H69.3299V2.664L71.3779 2.424V4.536H73.3459L73.1379 6.008H71.3779V10.424C71.3779 10.84 71.4472 11.1387 71.5859 11.32C71.7352 11.5013 71.9645 11.592 72.2739 11.592C72.5832 11.592 72.9192 11.4907 73.2819 11.288L74.0019 12.6Z" fill="#3E8BFF"/>
<defs>
<clipPath id="clip0_76_55">
<rect width="60" height="60" fill="white" transform="translate(7 31)"/>
</clipPath>
</defs>
</svg>
