<svg width="254" height="254" viewBox="0 0 254 254" fill="none" xmlns="http://www.w3.org/2000/svg">
<path d="M0.406494 18.5227C0.406494 8.51909 8.77467 0.406616 19.0958 0.406616H234.617C244.938 0.406616 253.306 8.51909 253.306 18.5227V235.191C253.306 245.197 244.938 253.307 234.617 253.307H19.0958C8.77467 253.307 0.406494 245.197 0.406494 235.191V18.5227Z" fill="#3E8BFF"/>
<path d="M57.9693 82.3209C71.2887 82.3209 79.581 73.5509 79.581 62.5919C79.3337 51.3856 71.2915 42.8601 58.2222 42.8601C45.1557 42.8601 36.6133 51.3856 36.6133 62.5919C36.6133 73.5509 44.9028 82.3209 57.722 82.3209H57.9693Z" fill="white"/>
<path d="M77.069 212.109V97.9108H38.8699V212.109H77.069Z" fill="white"/>
<path d="M98.2058 212.109H136.405V148.336C136.405 144.922 136.652 141.514 137.661 139.074C140.423 132.255 146.706 125.193 157.261 125.193C171.083 125.193 176.613 135.666 176.613 151.017V212.109H214.807V146.631C214.807 111.553 195.963 95.2328 170.83 95.2328C150.225 95.2328 141.176 106.678 136.149 114.473H136.405V97.9108H98.2058C98.706 108.628 98.2058 212.109 98.2058 212.109Z" fill="white"/>
</svg>
