<svg width="254" height="254" viewBox="0 0 254 254" fill="none" xmlns="http://www.w3.org/2000/svg">
<path d="M126.856 253.307C196.693 253.307 253.306 196.693 253.306 126.857C253.306 57.0202 196.693 0.406586 126.856 0.406586C57.0201 0.406586 0.406494 57.0202 0.406494 126.857C0.406494 196.693 57.0201 253.307 126.856 253.307Z" fill="#3E8BFF"/>
<path d="M181.84 74.8575H71.8733C63.0443 74.8575 55.8872 82.0146 55.8872 90.8436V162.867C55.8872 171.696 63.0443 178.853 71.8733 178.853H181.843C190.672 178.853 197.829 171.696 197.829 162.867V90.8436C197.826 82.0174 190.669 74.8575 181.84 74.8575ZM178.4 161.897C177.571 162.757 176.467 163.19 175.363 163.19C174.312 163.19 173.258 162.797 172.44 162.013L145.973 136.54L142.16 140.724C138.243 145.018 132.668 147.479 126.857 147.479C121.045 147.479 115.468 145.018 111.553 140.724L107.796 136.602L82.4445 161.956C81.624 162.78 80.5421 163.19 79.4631 163.19C78.3841 163.19 77.305 162.78 76.4817 161.956C74.835 160.31 74.835 157.643 76.4817 155.996L102.109 130.366L75.2369 100.875C73.6689 99.1556 73.7925 96.4889 75.5122 94.9209C77.2348 93.353 79.9015 93.4766 81.4666 95.1963L117.783 135.042C120.138 137.627 123.361 139.049 126.857 139.049C130.352 139.049 133.578 137.627 135.93 135.042L142.736 127.576L172.246 95.1991C173.817 93.4794 176.481 93.3586 178.201 94.9238C179.921 96.4917 180.044 99.1556 178.476 100.878L151.652 130.31L178.282 155.94C179.96 157.553 180.013 160.22 178.4 161.897Z" fill="white"/>
</svg>
