<svg width="55" height="88" viewBox="0 0 55 88" fill="none" xmlns="http://www.w3.org/2000/svg">
<path d="M30 87.25C29.2918 87.2503 28.5959 87.064 27.9825 86.71L21.5625 82.9094C20.6044 82.3731 21.0713 82.1838 21.3881 82.0731C22.4071 81.7583 23.3828 81.3174 24.2925 80.7606C24.3686 80.7254 24.4525 80.7102 24.5362 80.7164C24.6198 80.7227 24.7005 80.7501 24.7706 80.7963L29.7038 83.7269C29.7956 83.7755 29.898 83.8009 30.0019 83.8009C30.1058 83.8009 30.2081 83.7755 30.3 83.7269L49.5375 72.6231C49.6275 72.5692 49.702 72.4928 49.7536 72.4014C49.8052 72.31 49.8322 72.2068 49.8319 72.1019V49.8906C49.8319 49.784 49.8045 49.6792 49.7523 49.5863C49.7001 49.4933 49.6248 49.4154 49.5337 49.36L30.2963 38.2656C30.2055 38.2145 30.1032 38.1877 29.9991 38.1877C29.8949 38.1877 29.7926 38.2145 29.7019 38.2656L10.4756 49.3638C10.3839 49.418 10.3078 49.495 10.2546 49.5873C10.2013 49.6796 10.1729 49.7841 10.1719 49.8906V72.0925C10.1721 72.1972 10.2002 72.3 10.2533 72.3902C10.3063 72.4805 10.3824 72.5551 10.4738 72.6063L15.75 75.6513C18.6094 77.08 20.3606 75.3963 20.3606 73.705V51.7844C20.3606 51.6352 20.4199 51.4921 20.5254 51.3866C20.6309 51.2811 20.7739 51.2219 20.9231 51.2219H23.3606C23.5098 51.2219 23.6529 51.2811 23.7584 51.3866C23.8639 51.4921 23.9231 51.6352 23.9231 51.7844V73.7069C23.9231 77.5225 21.8456 79.7069 18.2269 79.7069C16.6657 79.7341 15.129 79.3166 13.7963 78.5031L8.73938 75.6025C8.12548 75.245 7.6161 74.7327 7.26208 74.1168C6.90806 73.5009 6.72179 72.8029 6.72188 72.0925V49.8906C6.72005 49.1791 6.90553 48.4797 7.25967 47.8626C7.61381 47.2454 8.12414 46.7324 8.73938 46.375L27.9788 35.2675C28.5985 34.9284 29.2936 34.7507 30 34.7507C30.7064 34.7507 31.4015 34.9284 32.0212 35.2675L51.2587 46.375C51.8726 46.7318 52.3821 47.2434 52.7364 47.8586C53.0908 48.4738 53.2776 49.1713 53.2781 49.8813V72.0925C53.2771 72.8029 53.0901 73.5007 52.7359 74.1164C52.3816 74.7322 51.8724 75.2445 51.2587 75.6025L32.0212 86.71C31.4067 87.0646 30.7095 87.2508 30 87.25V87.25Z" fill="#3E8BFF"/>
<path d="M26.3513 64.6619C26.3513 64.5127 26.4105 64.3696 26.516 64.2641C26.6215 64.1586 26.7646 64.0994 26.9138 64.0994H29.4019C29.5348 64.0998 29.6633 64.1473 29.7646 64.2335C29.8658 64.3196 29.9333 64.4388 29.955 64.57C30.33 67.1031 31.455 68.38 36.5419 68.38C40.5938 68.38 42.3206 67.4631 42.3206 65.3125C42.3206 64.0731 41.8313 63.1525 35.5331 62.5356C30.2681 62.0144 27.0131 60.8481 27.0131 56.6406C27.0131 52.7594 30.285 50.4437 35.7694 50.4437C41.9325 50.4437 44.9831 52.5831 45.3694 57.1731C45.3753 57.2498 45.3654 57.3268 45.3404 57.3994C45.3154 57.4721 45.2757 57.5389 45.2239 57.5956C45.1721 57.6524 45.1091 57.6979 45.039 57.7294C44.9689 57.7609 44.8931 57.7777 44.8163 57.7787H42.3113C42.1856 57.777 42.0641 57.7332 41.9663 57.6544C41.8684 57.5755 41.7997 57.4662 41.7713 57.3437C41.1731 54.6794 39.7088 53.8281 35.7713 53.8281C31.3463 53.8281 30.8325 55.3694 30.8325 56.5244C30.8325 57.9231 31.44 58.3319 37.4138 59.1212C43.3256 59.9031 46.1344 61.0094 46.1344 65.1644C46.1344 69.3569 42.6394 71.7569 36.5438 71.7569C28.1156 71.7681 26.3513 67.9037 26.3513 64.6619Z" fill="#3E8BFF"/>
<path d="M9.456 13H6.72L2.928 4.056C3.024 4.84533 3.09333 5.56 3.136 6.2C3.18933 6.84 3.216 7.60267 3.216 8.488V13H1.296V1.944H3.968L7.824 10.904C7.76 10.4773 7.696 9.91733 7.632 9.224C7.568 8.52 7.536 7.82133 7.536 7.128V1.944H9.456V13ZM15.438 4.296C16.686 4.296 17.6567 4.696 18.35 5.496C19.054 6.28533 19.406 7.37333 19.406 8.76C19.406 9.64533 19.246 10.4293 18.926 11.112C18.606 11.784 18.1473 12.3067 17.55 12.68C16.9527 13.0533 16.2433 13.24 15.422 13.24C14.174 13.24 13.198 12.8453 12.494 12.056C11.79 11.256 11.438 10.1573 11.438 8.76C11.438 7.87467 11.598 7.096 11.918 6.424C12.238 5.752 12.6967 5.22933 13.294 4.856C13.902 4.48267 14.6167 4.296 15.438 4.296ZM15.438 5.848C14.2113 5.848 13.598 6.81867 13.598 8.76C13.598 9.76267 13.7473 10.504 14.046 10.984C14.3553 11.4533 14.814 11.688 15.422 11.688C16.03 11.688 16.4833 11.448 16.782 10.968C17.0913 10.488 17.246 9.752 17.246 8.76C17.246 7.768 17.0913 7.03733 16.782 6.568C16.4833 6.088 16.0353 5.848 15.438 5.848ZM28.4458 1.144V13H26.6378L26.4938 11.928C26.2271 12.3333 25.8858 12.6533 25.4698 12.888C25.0644 13.1227 24.6004 13.24 24.0778 13.24C23.0431 13.24 22.2484 12.84 21.6938 12.04C21.1391 11.24 20.8618 10.152 20.8618 8.776C20.8618 7.912 21.0004 7.144 21.2778 6.472C21.5551 5.78933 21.9498 5.256 22.4618 4.872C22.9844 4.488 23.5871 4.296 24.2698 4.296C25.0804 4.296 25.7898 4.6 26.3978 5.208V0.919999L28.4458 1.144ZM24.6538 11.688C25.0164 11.688 25.3364 11.6027 25.6138 11.432C25.8911 11.2507 26.1524 10.9733 26.3978 10.6V6.728C26.1524 6.42933 25.9018 6.20533 25.6458 6.056C25.4004 5.90667 25.1124 5.832 24.7818 5.832C24.2378 5.832 23.8058 6.07733 23.4858 6.568C23.1764 7.048 23.0218 7.77867 23.0218 8.76C23.0218 9.80533 23.1604 10.5573 23.4378 11.016C23.7151 11.464 24.1204 11.688 24.6538 11.688ZM37.8479 8.568C37.8479 8.67467 37.8319 8.952 37.7999 9.4H32.4879C32.5519 10.2213 32.7652 10.808 33.1279 11.16C33.4905 11.512 33.9705 11.688 34.5679 11.688C34.9412 11.688 35.2932 11.6293 35.6239 11.512C35.9545 11.384 36.3065 11.192 36.6799 10.936L37.5279 12.104C36.5892 12.8613 35.5439 13.24 34.3919 13.24C33.1012 13.24 32.1039 12.8453 31.3999 12.056C30.7065 11.2667 30.3599 10.1893 30.3599 8.824C30.3599 7.96 30.5092 7.18667 30.8079 6.504C31.1065 5.81067 31.5385 5.272 32.1039 4.888C32.6692 4.49333 33.3412 4.296 34.1199 4.296C35.3039 4.296 36.2212 4.67467 36.8719 5.432C37.5225 6.17867 37.8479 7.224 37.8479 8.568ZM35.8159 7.976C35.8159 6.49333 35.2665 5.752 34.1679 5.752C33.6665 5.752 33.2719 5.93867 32.9839 6.312C32.7065 6.67467 32.5412 7.26133 32.4879 8.072H35.8159V7.976ZM40.2009 10.648C40.5635 10.648 40.8729 10.776 41.1289 11.032C41.3849 11.2773 41.5129 11.5813 41.5129 11.944C41.5129 12.296 41.3849 12.6 41.1289 12.856C40.8729 13.112 40.5635 13.24 40.2009 13.24C39.8489 13.24 39.5449 13.112 39.2889 12.856C39.0435 12.6 38.9209 12.296 38.9209 11.944C38.9209 11.5813 39.0435 11.2773 39.2889 11.032C39.5342 10.776 39.8382 10.648 40.2009 10.648ZM45.4046 12.248C45.4046 13.08 45.282 13.7573 45.0366 14.28C44.802 14.8133 44.466 15.24 44.0286 15.56C43.5913 15.88 43.0206 16.184 42.3166 16.472L41.6606 14.984C42.0766 14.792 42.402 14.6 42.6366 14.408C42.8713 14.2267 43.0473 13.976 43.1646 13.656C43.2926 13.336 43.3566 12.9093 43.3566 12.376V4.536H45.4046V12.248ZM44.3646 0.247999C44.7486 0.247999 45.058 0.370666 45.2926 0.615999C45.538 0.850666 45.6606 1.144 45.6606 1.496C45.6606 1.848 45.538 2.14133 45.2926 2.376C45.058 2.61067 44.7486 2.728 44.3646 2.728C43.9913 2.728 43.682 2.61067 43.4366 2.376C43.202 2.14133 43.0846 1.848 43.0846 1.496C43.0846 1.144 43.202 0.850666 43.4366 0.615999C43.682 0.370666 43.9913 0.247999 44.3646 0.247999ZM50.5446 4.296C51.686 4.296 52.6886 4.632 53.5526 5.304L52.7526 6.504C52.0273 6.04533 51.318 5.816 50.6246 5.816C50.2193 5.816 49.9046 5.896 49.6806 6.056C49.4566 6.20533 49.3446 6.408 49.3446 6.664C49.3446 6.856 49.3926 7.016 49.4886 7.144C49.5846 7.272 49.7553 7.39467 50.0006 7.512C50.2566 7.61867 50.63 7.74133 51.1206 7.88C52.038 8.12533 52.7153 8.45067 53.1526 8.856C53.6006 9.26133 53.8246 9.82667 53.8246 10.552C53.8246 11.3947 53.4833 12.056 52.8006 12.536C52.118 13.0053 51.27 13.24 50.2566 13.24C49.5633 13.24 48.9286 13.1333 48.3526 12.92C47.7873 12.7067 47.2966 12.4133 46.8806 12.04L47.9046 10.888C48.6406 11.4427 49.4086 11.72 50.2086 11.72C50.6673 11.72 51.03 11.6293 51.2966 11.448C51.574 11.2667 51.7126 11.016 51.7126 10.696C51.7126 10.4507 51.6593 10.2587 51.5526 10.12C51.4566 9.97067 51.2753 9.84267 51.0086 9.736C50.7526 9.61867 50.3473 9.48 49.7926 9.32C48.9286 9.08533 48.294 8.76 47.8886 8.344C47.4833 7.91733 47.2806 7.38933 47.2806 6.76C47.2806 6.29067 47.414 5.86933 47.6806 5.496C47.958 5.12267 48.342 4.82933 48.8326 4.616C49.334 4.40267 49.9046 4.296 50.5446 4.296Z" fill="#3E8BFF"/>
</svg>
