<svg width="203" height="42" viewBox="0 0 203 42" fill="none" xmlns="http://www.w3.org/2000/svg">
<path d="M10.872 7.73598C15.256 7.73598 18.664 8.64798 21.096 10.472C23.528 12.296 24.744 15 24.744 18.584C24.744 22.328 23.544 25.16 21.144 27.08C18.776 28.968 15.592 29.912 11.592 29.912H7.992V41H0.119995V7.73598H10.872ZM10.92 24.248C12.776 24.248 14.184 23.816 15.144 22.952C16.136 22.056 16.632 20.6 16.632 18.584C16.632 15.096 14.68 13.352 10.776 13.352H7.992V24.248H10.92Z" fill="white"/>
<path d="M38.3441 14.696C42.2481 14.696 45.3041 15.896 47.5121 18.296C49.7201 20.664 50.8241 23.992 50.8241 28.28C50.8241 31 50.3121 33.384 49.2881 35.432C48.2961 37.448 46.8561 39.016 44.9681 40.136C43.1121 41.256 40.9041 41.816 38.3441 41.816C34.4721 41.816 31.4161 40.632 29.1761 38.264C26.9681 35.864 25.8641 32.52 25.8641 28.232C25.8641 25.512 26.3601 23.144 27.3521 21.128C28.3761 19.08 29.8161 17.496 31.6721 16.376C33.5601 15.256 35.7841 14.696 38.3441 14.696ZM38.3441 20.264C36.8081 20.264 35.6561 20.92 34.8881 22.232C34.1201 23.512 33.7361 25.512 33.7361 28.232C33.7361 31.016 34.1041 33.048 34.8401 34.328C35.6081 35.608 36.7761 36.248 38.3441 36.248C39.8801 36.248 41.0321 35.608 41.8001 34.328C42.5681 33.016 42.9521 31 42.9521 28.28C42.9521 25.496 42.5681 23.464 41.8001 22.184C41.0641 20.904 39.9121 20.264 38.3441 20.264Z" fill="white"/>
<path d="M69.1594 14.792C70.0874 14.792 70.9354 14.904 71.7034 15.128L70.5034 22.472C69.5434 22.248 68.7754 22.136 68.1994 22.136C66.6954 22.136 65.5434 22.664 64.7434 23.72C63.9754 24.744 63.3674 26.296 62.9194 28.376V41H55.3354V15.512H61.9594L62.5834 20.456C63.1594 18.696 64.0234 17.32 65.1754 16.328C66.3594 15.304 67.6874 14.792 69.1594 14.792Z" fill="white"/>
<path d="M90.585 39.8C89.657 40.44 88.569 40.936 87.321 41.288C86.105 41.64 84.889 41.816 83.673 41.816C78.105 41.784 75.321 38.712 75.321 32.6V20.792H71.721V15.512H75.321V9.99198L82.905 9.12798V15.512H88.761L87.945 20.792H82.905V32.504C82.905 33.688 83.097 34.536 83.481 35.048C83.865 35.56 84.473 35.816 85.305 35.816C86.169 35.816 87.081 35.544 88.041 35L90.585 39.8Z" fill="white"/>
<path d="M100.701 15.512V41H93.1166V15.512H100.701ZM96.8606 2.07198C98.1726 2.07198 99.2446 2.48798 100.077 3.31998C100.941 4.11998 101.373 5.14398 101.373 6.39198C101.373 7.63998 100.941 8.67998 100.077 9.51198C99.2446 10.312 98.1726 10.712 96.8606 10.712C95.5486 10.712 94.4766 10.312 93.6446 9.51198C92.8126 8.67998 92.3966 7.63998 92.3966 6.39198C92.3966 5.14398 92.8126 4.11998 93.6446 3.31998C94.4766 2.48798 95.5486 2.07198 96.8606 2.07198Z" fill="white"/>
<path d="M118.327 10.184C117.239 10.184 116.455 10.44 115.975 10.952C115.495 11.464 115.255 12.328 115.255 13.544V15.512H121.255L120.439 20.792H115.255V41H107.671V20.792H103.831V15.512H107.671V13.256C107.671 10.696 108.503 8.61598 110.167 7.01598C111.863 5.38398 114.279 4.56798 117.415 4.56798C119.943 4.56798 122.263 5.11198 124.375 6.19998L122.311 11.144C121.031 10.504 119.703 10.184 118.327 10.184Z" fill="white"/>
<path d="M134.344 14.696C138.248 14.696 141.304 15.896 143.512 18.296C145.72 20.664 146.824 23.992 146.824 28.28C146.824 31 146.312 33.384 145.288 35.432C144.296 37.448 142.856 39.016 140.968 40.136C139.112 41.256 136.904 41.816 134.344 41.816C130.472 41.816 127.416 40.632 125.176 38.264C122.968 35.864 121.864 32.52 121.864 28.232C121.864 25.512 122.36 23.144 123.352 21.128C124.376 19.08 125.816 17.496 127.672 16.376C129.56 15.256 131.784 14.696 134.344 14.696ZM134.344 20.264C132.808 20.264 131.656 20.92 130.888 22.232C130.12 23.512 129.736 25.512 129.736 28.232C129.736 31.016 130.104 33.048 130.84 34.328C131.608 35.608 132.776 36.248 134.344 36.248C135.88 36.248 137.032 35.608 137.8 34.328C138.568 33.016 138.952 31 138.952 28.28C138.952 25.496 138.568 23.464 137.8 22.184C137.064 20.904 135.912 20.264 134.344 20.264ZM137.8 0.919983L140.776 6.58398L129.448 11.144L127.336 7.25598L137.8 0.919983Z" fill="white"/>
<path d="M158.103 41.816C155.895 41.816 154.167 41.192 152.919 39.944C151.703 38.664 151.095 36.856 151.095 34.52V5.38398L158.679 4.56798V34.232C158.679 35.288 159.111 35.816 159.975 35.816C160.423 35.816 160.839 35.736 161.223 35.576L162.711 40.952C161.335 41.528 159.799 41.816 158.103 41.816Z" fill="white"/>
<path d="M173.169 15.512V41H165.585V15.512H173.169ZM169.329 2.07198C170.641 2.07198 171.713 2.48798 172.545 3.31998C173.409 4.11998 173.841 5.14398 173.841 6.39198C173.841 7.63998 173.409 8.67998 172.545 9.51198C171.713 10.312 170.641 10.712 169.329 10.712C168.017 10.712 166.945 10.312 166.113 9.51198C165.281 8.67998 164.865 7.63998 164.865 6.39198C164.865 5.14398 165.281 4.11998 166.113 3.31998C166.945 2.48798 168.017 2.07198 169.329 2.07198Z" fill="white"/>
<path d="M190.172 14.696C194.076 14.696 197.132 15.896 199.34 18.296C201.548 20.664 202.652 23.992 202.652 28.28C202.652 31 202.14 33.384 201.116 35.432C200.124 37.448 198.684 39.016 196.796 40.136C194.94 41.256 192.732 41.816 190.172 41.816C186.3 41.816 183.244 40.632 181.004 38.264C178.796 35.864 177.692 32.52 177.692 28.232C177.692 25.512 178.188 23.144 179.18 21.128C180.204 19.08 181.644 17.496 183.5 16.376C185.388 15.256 187.612 14.696 190.172 14.696ZM190.172 20.264C188.636 20.264 187.484 20.92 186.716 22.232C185.948 23.512 185.564 25.512 185.564 28.232C185.564 31.016 185.932 33.048 186.668 34.328C187.436 35.608 188.604 36.248 190.172 36.248C191.708 36.248 192.86 35.608 193.628 34.328C194.396 33.016 194.78 31 194.78 28.28C194.78 25.496 194.396 23.464 193.628 22.184C192.892 20.904 191.74 20.264 190.172 20.264Z" fill="white"/>
</svg>
