<svg width="60" height="91" viewBox="0 0 60 91" fill="none" xmlns="http://www.w3.org/2000/svg">
<path d="M44.0404 48.1375V53.6993C44.0173 55.7782 43.1891 57.7671 41.73 59.248C40.2708 60.7289 38.2943 61.5864 36.216 61.6403H23.7059C22.0376 61.6734 20.4486 62.3578 19.2783 63.5472C18.1081 64.7365 17.4495 66.3365 17.4434 68.005V79.9313C17.4434 83.3251 20.395 85.3221 23.7059 86.296C27.7787 87.5698 32.1433 87.5698 36.216 86.296C39.3692 85.3831 42.4785 83.5457 42.4785 79.9313V75.1562H29.9682V73.5651H48.7409C52.381 73.5651 53.7374 71.026 55.0034 67.2151C56.2885 63.0693 56.2885 58.6316 55.0034 54.4859C54.1034 50.8621 52.3857 48.1358 48.7409 48.1358L44.0404 48.1375ZM37.0043 78.3393C37.4782 78.3319 37.9436 78.4658 38.3412 78.724C38.7387 78.9821 39.0504 79.3528 39.2366 79.7887C39.4227 80.2246 39.4748 80.7061 39.3863 81.1718C39.2978 81.6374 39.0726 82.0662 38.7395 82.4035C38.4064 82.7407 37.9805 82.9711 37.516 83.0654C37.0514 83.1597 36.5693 83.1135 36.1311 82.9328C35.6929 82.7521 35.3185 82.445 35.0554 82.0507C34.7924 81.6563 34.6527 81.1926 34.6542 80.7186C34.6521 80.408 34.7113 80.1001 34.8283 79.8124C34.9453 79.5247 35.1179 79.2629 35.3362 79.0419C35.5544 78.821 35.8141 78.6452 36.1003 78.5246C36.3865 78.404 36.6937 78.341 37.0043 78.3393Z" fill="#3E8BFF"/>
<path d="M29.6908 34.75C27.685 34.7522 25.683 34.9231 23.7058 35.2609C18.4056 36.1973 17.4433 38.1572 17.4433 41.7715V46.5454H29.9683V48.1375H12.7429C10.8994 48.1037 9.10324 48.7224 7.67158 49.8843C6.23992 51.0462 5.26485 52.6766 4.91853 54.4876C3.74282 58.6492 3.74282 63.0551 4.91853 67.2167C5.80878 70.9247 7.93503 73.5668 11.5748 73.5668H15.8813V67.8437C15.927 65.787 16.7673 63.8278 18.2261 62.3771C19.6848 60.9263 21.6486 60.0968 23.7057 60.0625H36.2158C37.0451 60.0563 37.865 59.8867 38.6286 59.5634C39.3922 59.24 40.0847 58.7694 40.6663 58.1783C41.2479 57.5872 41.7073 56.8873 42.0182 56.1185C42.3292 55.3497 42.4855 54.5272 42.4783 53.698V41.7719C42.3732 40.1213 41.6863 38.5614 40.5397 37.3694C39.3931 36.1774 37.8611 35.4305 36.2158 35.2613C34.059 34.9087 31.8763 34.7376 29.6908 34.75ZM22.9174 38.5896C23.3907 38.5823 23.8555 38.7159 24.2528 38.9734C24.65 39.2309 24.9617 39.6007 25.1482 40.0357C25.3348 40.4708 25.3877 40.9515 25.3004 41.4168C25.2131 41.882 24.9894 42.3108 24.6578 42.6486C24.3262 42.9864 23.9016 43.218 23.438 43.3139C22.9745 43.4099 22.4928 43.3658 22.0544 43.1873C21.6159 43.0089 21.2405 42.7041 20.9757 42.3117C20.7109 41.9193 20.5687 41.457 20.5673 40.9836C20.5626 40.3549 20.8073 39.7499 21.2478 39.3012C21.6883 38.8525 22.2887 38.5966 22.9174 38.5896V38.5896Z" fill="#3E8BFF"/>
<path d="M9.56 1.944C10.9787 1.944 12.0773 2.23733 12.856 2.824C13.6453 3.41067 14.04 4.29067 14.04 5.464C14.04 6.69067 13.6453 7.61333 12.856 8.232C12.0667 8.84 11.016 9.144 9.704 9.144H8.408V13H6.296V1.944H9.56ZM9.544 7.56C10.3013 7.56 10.872 7.40533 11.256 7.096C11.64 6.776 11.832 6.232 11.832 5.464C11.832 4.152 11.0693 3.496 9.544 3.496H8.408V7.56H9.544ZM19.703 13.032C19.3617 14.0773 18.8443 14.888 18.151 15.464C17.4577 16.0507 16.5083 16.392 15.303 16.488L15.095 15C15.6497 14.9147 16.0923 14.792 16.423 14.632C16.7643 14.4827 17.0363 14.28 17.239 14.024C17.4417 13.768 17.6283 13.4267 17.799 13H17.095L14.407 4.536H16.583L18.423 11.64L20.343 4.536H22.455L19.703 13.032ZM28.5488 12.6C28.2501 12.8133 27.9141 12.9733 27.5408 13.08C27.1781 13.1867 26.8048 13.24 26.4208 13.24C25.5888 13.2293 24.9541 12.9947 24.5168 12.536C24.0901 12.0667 23.8768 11.3787 23.8768 10.472V6.008H22.5488V4.536H23.8768V2.664L25.9248 2.424V4.536H27.8928L27.6848 6.008H25.9248V10.424C25.9248 10.84 25.9941 11.1387 26.1328 11.32C26.2821 11.5013 26.5114 11.592 26.8208 11.592C27.1301 11.592 27.4661 11.4907 27.8288 11.288L28.5488 12.6ZM34.2128 4.296C34.9594 4.296 35.5461 4.52533 35.9728 4.984C36.3994 5.44267 36.6128 6.072 36.6128 6.872V13H34.5648V7.192C34.5648 6.69067 34.4741 6.33867 34.2928 6.136C34.1221 5.93333 33.8661 5.832 33.5248 5.832C33.1834 5.832 32.8688 5.944 32.5807 6.168C32.2928 6.38133 32.0154 6.69067 31.7488 7.096V13H29.7008V1.16L31.7488 0.952V5.544C32.4314 4.712 33.2528 4.296 34.2128 4.296ZM42.4536 4.296C43.7016 4.296 44.6723 4.696 45.3656 5.496C46.0696 6.28533 46.4216 7.37333 46.4216 8.76C46.4216 9.64533 46.2616 10.4293 45.9416 11.112C45.6216 11.784 45.163 12.3067 44.5656 12.68C43.9683 13.0533 43.259 13.24 42.4376 13.24C41.1896 13.24 40.2136 12.8453 39.5096 12.056C38.8056 11.256 38.4536 10.1573 38.4536 8.76C38.4536 7.87467 38.6136 7.096 38.9336 6.424C39.2536 5.752 39.7123 5.22933 40.3096 4.856C40.9176 4.48267 41.6323 4.296 42.4536 4.296ZM42.4536 5.848C41.227 5.848 40.6136 6.81867 40.6136 8.76C40.6136 9.76267 40.763 10.504 41.0616 10.984C41.371 11.4533 41.8296 11.688 42.4376 11.688C43.0456 11.688 43.499 11.448 43.7976 10.968C44.107 10.488 44.2616 9.752 44.2616 8.76C44.2616 7.768 44.107 7.03733 43.7976 6.568C43.499 6.088 43.051 5.848 42.4536 5.848ZM52.8534 4.296C53.6107 4.296 54.1974 4.52533 54.6134 4.984C55.04 5.432 55.2534 6.06133 55.2534 6.872V13H53.2054V7.192C53.2054 6.69067 53.1147 6.33867 52.9334 6.136C52.7627 5.93333 52.5067 5.832 52.1654 5.832C51.8134 5.832 51.4934 5.944 51.2054 6.168C50.928 6.38133 50.656 6.696 50.3894 7.112V13H48.3414V4.536H50.1174L50.2774 5.64C50.9707 4.744 51.8294 4.296 52.8534 4.296Z" fill="#3E8BFF"/>
</svg>
