<svg width="60" height="89" viewBox="0 0 60 89" fill="none" xmlns="http://www.w3.org/2000/svg">
<path fill-rule="evenodd" clip-rule="evenodd" d="M21.2615 38.3463C19.6636 37.8828 18.4784 38.0071 17.6162 38.4741C16.754 38.9411 16.0024 39.8659 15.5178 41.4575C15.0297 43.0607 14.8631 45.201 15.1003 47.7852C15.1388 48.204 15.1876 48.6318 15.2467 49.0679C17.3395 48.536 19.5884 48.116 21.9515 47.8228C23.5897 45.5276 25.308 43.4578 27.0512 41.663C26.9639 41.5922 26.8767 41.5223 26.7896 41.4534C24.7546 39.8429 22.8709 38.8133 21.2615 38.3463ZM29.9998 38.91C29.757 38.7064 29.5143 38.5086 29.2718 38.3168C26.984 36.5062 24.641 35.1619 22.376 34.5048C20.0995 33.8442 17.7626 33.8457 15.711 34.9569C13.6595 36.0682 12.3817 38.0248 11.6913 40.2925C11.0044 42.5486 10.8504 45.2454 11.1171 48.1508C11.1796 48.8318 11.2657 49.5298 11.3752 50.2426C10.6964 50.4858 10.0417 50.7425 9.41316 51.0119C6.73144 52.1612 4.43348 53.5811 2.77688 55.2596C1.1118 56.9468 0 59.0023 0 61.3355C0 63.6686 1.1118 65.7241 2.77688 67.4113C4.43348 69.0898 6.73144 70.5097 9.41316 71.6592C10.0417 71.9284 10.6963 72.1852 11.3751 72.4284C11.2657 73.1412 11.1795 73.8392 11.117 74.5204C10.8503 77.4256 11.0043 80.1224 11.6912 82.3788C12.3816 84.6464 13.6594 86.6028 15.711 87.714C17.7625 88.8256 20.0994 88.8268 22.376 88.1664C24.6409 87.5092 26.9839 86.1648 29.2718 84.3544C29.5142 84.1624 29.7569 83.9648 29.9998 83.7612C30.2426 83.9648 30.4853 84.1624 30.7277 84.3544C33.0156 86.1648 35.3586 87.5092 37.6236 88.1664C39.9001 88.8268 42.2368 88.8256 44.2884 87.714C46.34 86.6028 47.618 84.6464 48.3084 82.3788C48.9952 80.1224 49.1492 77.4256 48.8824 74.5204C48.82 73.8392 48.734 73.1412 48.6244 72.4284C49.3032 72.1852 49.958 71.9284 50.5868 71.6592C53.2684 70.5097 55.5664 69.0898 57.2232 67.4113C58.888 65.7241 60 63.6686 60 61.3355C60 59.0023 58.888 56.9468 57.2232 55.2596C55.5664 53.5811 53.2684 52.1612 50.5868 51.0119C49.958 50.7425 49.3032 50.4858 48.6244 50.2424C48.7336 49.5297 48.82 48.8318 48.8824 48.1508C49.1492 45.2454 48.9952 42.5486 48.3084 40.2925C47.618 38.0248 46.34 36.0682 44.2884 34.9569C42.2368 33.8457 39.9 33.8442 37.6235 34.5048C35.3585 35.1619 33.0155 36.5062 30.7276 38.3168C30.4852 38.5086 30.2426 38.7064 29.9998 38.91ZM29.9998 44.3686C29.1006 45.2893 28.2006 46.2984 27.3108 47.3885C28.1974 47.3534 29.0944 47.3355 30 47.3355C30.9054 47.3355 31.8022 47.3534 32.6886 47.3885C31.7989 46.2984 30.899 45.2893 29.9998 44.3686ZM38.048 47.8227C36.4098 45.5275 34.6915 43.4578 32.9483 41.663C33.0356 41.5922 33.1228 41.5223 33.21 41.4534C35.2449 39.8429 37.1286 38.8133 38.738 38.3463C40.336 37.8828 41.5212 38.0071 42.3832 38.4741C43.2456 38.9411 43.9972 39.8659 44.4816 41.4575C44.9696 43.0607 45.1364 45.201 44.8992 47.7852C44.8608 48.2039 44.812 48.6317 44.7528 49.0678C42.66 48.536 40.4112 48.1159 38.048 47.8227ZM35.7974 51.6014C33.936 51.4277 31.9964 51.3355 30 51.3355C28.0034 51.3355 26.0636 51.4277 24.2021 51.6014C23.1628 53.1555 22.1578 54.8171 21.2068 56.5726C20.3409 58.1713 19.5646 59.7649 18.8786 61.3355C19.5647 62.9061 20.341 64.4998 21.2069 66.0985C22.1578 67.8539 23.1628 69.5155 24.202 71.0696C26.0636 71.2432 28.0034 71.3356 30 71.3356C31.9964 71.3356 33.936 71.2432 35.7974 71.0696C36.8367 69.5156 37.8417 67.854 38.7926 66.0985C39.6586 64.4998 40.4348 62.9061 41.1208 61.3355C40.4348 59.765 39.6586 58.1713 38.7927 56.5726C37.8417 54.8171 36.8367 53.1554 35.7974 51.6014ZM43.0912 56.1535C42.8384 55.6581 42.578 55.1626 42.31 54.6675C41.8784 53.8712 41.4356 53.091 40.9824 52.3282C42.0248 52.5267 43.0292 52.7521 43.9912 53.002C43.7384 54.0255 43.4384 55.0783 43.0912 56.1535ZM43.0912 66.5174C42.8384 67.0129 42.578 67.5085 42.3096 68.0036C41.8784 68.7998 41.4356 69.5799 40.9824 70.3427C42.0248 70.1442 43.0292 69.9188 43.9912 69.6689C43.7384 68.6454 43.4384 67.5926 43.0912 66.5174ZM47.8132 68.4648C47.2332 66.17 46.4456 63.7742 45.4596 61.3354C46.4456 58.8968 47.2332 56.5009 47.8132 54.2062C48.2252 54.3619 48.6244 54.5228 49.0112 54.6885C51.3964 55.7107 53.1988 56.8766 54.376 58.0694C55.5448 59.2536 56 60.3549 56 61.3355C56 62.316 55.5448 63.4174 54.376 64.6015C53.1988 65.7943 51.3964 66.9602 49.0112 67.9824C48.6244 68.1481 48.2252 68.309 47.8132 68.4648ZM44.7528 73.6032C42.66 74.1348 40.4112 74.5552 38.048 74.8484C36.4099 77.1436 34.6915 79.2132 32.9483 81.008C33.0356 81.0788 33.1229 81.1488 33.21 81.2176C35.245 82.828 37.1287 83.858 38.7381 84.3248C40.336 84.7884 41.5212 84.664 42.3832 84.1972C43.2456 83.73 43.9972 82.8052 44.4816 81.2136C44.97 79.6104 45.1364 77.47 44.8992 74.886C44.8608 74.4672 44.812 74.0392 44.7528 73.6032ZM29.9998 78.3024C30.899 77.3816 31.7989 76.3724 32.6887 75.2824C31.8023 75.3176 30.9054 75.3356 30 75.3356C29.0944 75.3356 28.1974 75.3176 27.3108 75.2824C28.2006 76.3724 29.1005 77.3816 29.9998 78.3024ZM19.017 70.3426C18.5639 69.5799 18.121 68.7998 17.6898 68.0036C17.4216 67.5085 17.161 67.0129 16.9082 66.5174C16.5612 67.5926 16.2612 68.6453 16.0083 69.6688C16.9701 69.9187 17.9747 70.1441 19.017 70.3426ZM15.2467 73.6032C17.3394 74.1348 19.5884 74.5548 21.9514 74.848C23.5896 77.1432 25.308 79.2132 27.0513 81.008C26.9639 81.0788 26.8766 81.1488 26.7895 81.2176C24.7545 82.828 22.8708 83.858 21.2614 84.3248C19.6636 84.7884 18.4783 84.664 17.6162 84.1972C16.754 83.73 16.0024 82.8052 15.5178 81.2136C15.0296 79.6104 14.863 77.47 15.1002 74.886C15.1387 74.4672 15.1875 74.0392 15.2467 73.6032ZM12.1862 68.4646C12.7662 66.1699 13.5538 63.7741 14.5398 61.3355C13.5538 58.8968 12.7663 56.501 12.1862 54.2063C11.7746 54.362 11.3753 54.5228 10.9888 54.6885C8.60356 55.7107 6.80104 56.8766 5.62388 58.0694C4.4552 59.2536 4 60.3549 4 61.3355C4 62.316 4.4552 63.4174 5.62388 64.6015C6.80104 65.7943 8.60356 66.9602 10.9888 67.9824C11.3753 68.1481 11.7746 68.3089 12.1862 68.4646ZM16.0083 53.0021C16.2612 54.0256 16.5612 55.0783 16.9082 56.1535C17.161 55.6581 17.4215 55.1626 17.6897 54.6675C18.121 53.8713 18.5639 53.0911 19.0171 52.3283C17.9748 52.5268 16.9702 52.7522 16.0083 53.0021ZM24 61.3355C24 58.0218 26.6863 55.3355 30 55.3355C33.3137 55.3355 36 58.0218 36 61.3355C36 64.6492 33.3137 67.3355 30 67.3355C26.6863 67.3355 24 64.6492 24 61.3355ZM30 59.3355C28.8954 59.3355 28 60.2309 28 61.3355C28 62.44 28.8954 63.3355 30 63.3355C31.1046 63.3355 32 62.44 32 61.3355C32 60.2309 31.1046 59.3355 30 59.3355Z" fill="#3E8BFF"/>
<path d="M12.752 8.568H11.408V13H9.296V1.944H12.592C15.5147 1.944 16.976 3.02667 16.976 5.192C16.976 5.928 16.7947 6.536 16.432 7.016C16.0693 7.496 15.504 7.88533 14.736 8.184L17.632 13H15.2L12.752 8.568ZM11.408 7.048H12.72C13.392 7.048 13.8987 6.904 14.24 6.616C14.592 6.31733 14.768 5.84267 14.768 5.192C14.768 4.59467 14.5867 4.16267 14.224 3.896C13.872 3.61867 13.312 3.48 12.544 3.48H11.408V7.048ZM25.7229 8.568C25.7229 8.67467 25.7069 8.952 25.6749 9.4H20.3629C20.4269 10.2213 20.6402 10.808 21.0029 11.16C21.3655 11.512 21.8455 11.688 22.4429 11.688C22.8162 11.688 23.1682 11.6293 23.4989 11.512C23.8295 11.384 24.1815 11.192 24.5549 10.936L25.4029 12.104C24.4642 12.8613 23.4189 13.24 22.2669 13.24C20.9762 13.24 19.9789 12.8453 19.2749 12.056C18.5815 11.2667 18.2349 10.1893 18.2349 8.824C18.2349 7.96 18.3842 7.18667 18.6829 6.504C18.9815 5.81067 19.4135 5.272 19.9789 4.888C20.5442 4.49333 21.2162 4.296 21.9949 4.296C23.1789 4.296 24.0962 4.67467 24.7469 5.432C25.3975 6.17867 25.7229 7.224 25.7229 8.568ZM23.6909 7.976C23.6909 6.49333 23.1415 5.752 22.0429 5.752C21.5415 5.752 21.1469 5.93867 20.8589 6.312C20.5815 6.67467 20.4162 7.26133 20.3629 8.072H23.6909V7.976ZM33.6599 10.76C33.6599 11.0907 33.7079 11.336 33.8039 11.496C33.9105 11.6453 34.0759 11.7627 34.2999 11.848L33.8679 13.208C33.3879 13.1653 32.9932 13.048 32.6839 12.856C32.3852 12.664 32.1559 12.3707 31.9959 11.976C31.7079 12.4027 31.3452 12.7227 30.9079 12.936C30.4812 13.1387 30.0012 13.24 29.4679 13.24C28.6252 13.24 27.9585 13 27.4679 12.52C26.9772 12.04 26.7319 11.4107 26.7319 10.632C26.7319 9.71467 27.0625 9.016 27.7239 8.536C28.3959 8.04533 29.3505 7.8 30.5879 7.8H31.6439V7.32C31.6439 6.776 31.5159 6.39733 31.2599 6.184C31.0145 5.96 30.6145 5.848 30.0599 5.848C29.4412 5.848 28.6945 5.99733 27.8199 6.296L27.3399 4.904C28.3959 4.49867 29.4199 4.296 30.4119 4.296C32.5772 4.296 33.6599 5.26667 33.6599 7.208V10.76ZM30.0119 11.752C30.7052 11.752 31.2492 11.4053 31.6439 10.712V9H30.7959C29.4732 9 28.8119 9.49067 28.8119 10.472C28.8119 10.8773 28.9132 11.192 29.1159 11.416C29.3185 11.64 29.6172 11.752 30.0119 11.752ZM39.5463 4.296C40.1009 4.296 40.5969 4.376 41.0343 4.536C41.4823 4.696 41.9036 4.94667 42.2983 5.288L41.3863 6.52C41.0983 6.30667 40.8209 6.152 40.5543 6.056C40.2876 5.96 39.9943 5.912 39.6743 5.912C38.4049 5.912 37.7703 6.87733 37.7703 8.808C37.7703 9.78933 37.9356 10.4987 38.2663 10.936C38.5969 11.3627 39.0663 11.576 39.6743 11.576C39.9729 11.576 40.2449 11.528 40.4903 11.432C40.7463 11.336 41.0449 11.1813 41.3863 10.968L42.2983 12.264C41.4983 12.9147 40.5863 13.24 39.5623 13.24C38.7516 13.24 38.0476 13.064 37.4503 12.712C36.8529 12.3493 36.3943 11.8373 36.0743 11.176C35.7543 10.5147 35.5943 9.736 35.5943 8.84C35.5943 7.944 35.7543 7.15467 36.0743 6.472C36.3943 5.77867 36.8529 5.24533 37.4503 4.872C38.0476 4.488 38.7463 4.296 39.5463 4.296ZM48.6269 12.6C48.3282 12.8133 47.9922 12.9733 47.6189 13.08C47.2562 13.1867 46.8829 13.24 46.4989 13.24C45.6669 13.2293 45.0322 12.9947 44.5949 12.536C44.1682 12.0667 43.9549 11.3787 43.9549 10.472V6.008H42.6269V4.536H43.9549V2.664L46.0029 2.424V4.536H47.9709L47.7629 6.008H46.0029V10.424C46.0029 10.84 46.0722 11.1387 46.2109 11.32C46.3602 11.5013 46.5895 11.592 46.8989 11.592C47.2082 11.592 47.5442 11.4907 47.9069 11.288L48.6269 12.6Z" fill="#3E8BFF"/>
</svg>
