<svg width="244" height="245" viewBox="0 0 244 245" fill="none" xmlns="http://www.w3.org/2000/svg">
<path d="M1.37281 121.351C1.36438 142.671 6.93661 163.484 17.5275 181.834L0.358398 244.525L64.5107 227.704C82.1856 237.337 102.086 242.42 122.341 242.429H122.394C189.092 242.429 243.381 188.153 243.409 121.45C243.423 89.1234 230.846 58.7305 207.995 35.8599C185.15 12.9921 154.768 0.392041 122.391 0.377991C55.6901 0.377991 1.40091 54.6447 1.37281 121.354" fill="#3E8BFF"/>
<path d="M91.0821 68.9195C88.7358 63.7041 86.2658 63.5974 84.0347 63.5074C82.2082 63.4288 80.1175 63.4344 78.0325 63.4344C75.9418 63.4344 72.5502 64.2184 69.6812 67.3515C66.8094 70.4875 58.7166 78.0632 58.7166 93.4733C58.7166 108.886 69.9425 123.776 71.5049 125.87C73.0728 127.958 93.1756 160.593 125.01 173.148C151.469 183.582 156.856 181.508 162.597 180.985C168.34 180.462 181.129 173.409 183.739 166.095C186.35 158.781 186.35 152.511 185.568 151.205C184.784 149.898 182.697 149.114 179.563 147.549C176.43 145.981 161.031 138.405 158.16 137.36C155.288 136.315 153.2 135.795 151.109 138.931C149.022 142.064 143.022 149.117 141.196 151.205C139.369 153.298 137.54 153.56 134.41 151.992C131.276 150.421 121.188 147.116 109.221 136.447C99.9083 128.143 93.6224 117.892 91.7959 114.756C89.9694 111.623 91.602 109.929 93.17 108.366C94.5778 106.964 96.3031 104.71 97.8711 102.881C99.4334 101.052 99.9561 99.7452 100.999 97.6574C102.044 95.5667 101.521 93.7374 100.737 92.1694C99.9533 90.6015 93.8668 75.1127 91.0821 68.9195Z" fill="#FBFBFB"/>
</svg>
