<svg width="238" height="253" viewBox="0 0 238 253" fill="none" xmlns="http://www.w3.org/2000/svg">
<path d="M5.37281 125.351C5.36438 146.671 10.9366 167.484 21.5275 185.834L4.3584 248.525L68.5107 231.704C86.1856 241.337 106.086 246.42 126.341 246.429H126.394C193.092 246.429 247.381 192.153 247.409 125.45C247.423 93.1234 234.846 62.7305 211.995 39.8599C189.15 16.9921 158.768 4.39204 126.391 4.37799C59.6901 4.37799 5.40091 58.6447 5.37281 125.354" fill="#3E8BFF"/>
<path d="M1.05375 125.315C1.04532 147.401 6.81425 168.962 17.7845 187.967L0 252.9L66.4565 235.475C84.7665 245.459 105.381 250.722 126.36 250.731H126.413C195.5 250.731 251.742 194.505 251.773 125.413C251.784 91.9263 238.754 60.4403 215.089 36.752C191.417 13.0665 159.945 0.01405 126.413 0C57.3128 0 1.07904 56.2141 1.05094 125.312M40.6242 184.693L38.1429 180.753C27.7122 164.169 22.2074 145.002 22.213 125.323C22.2383 67.8924 68.9771 21.1649 126.45 21.1649C154.283 21.1762 180.439 32.0256 200.114 51.7124C219.787 71.3993 230.614 97.5716 230.605 125.402C230.58 182.835 183.839 229.563 126.411 229.563H126.369C107.668 229.552 89.3299 224.533 73.3382 215.041L69.5306 212.784L30.0923 223.125L40.6242 184.693ZM126.413 250.731C126.411 250.731 126.411 250.731 126.413 250.731Z" fill="#FBFBFB"/>
<path d="M95.0819 72.9195C92.7355 67.7041 90.2655 67.5974 88.0344 67.5074C86.2079 67.4288 84.1173 67.4344 82.0322 67.4344C79.9416 67.4344 76.5499 68.2184 73.6809 71.3515C70.8091 74.4875 62.7163 82.0632 62.7163 97.4733C62.7163 112.886 73.9423 127.776 75.5046 129.87C77.0726 131.958 97.1753 164.593 129.01 177.148C155.469 187.582 160.856 185.508 166.596 184.985C172.34 184.462 185.128 177.409 187.739 170.095C190.349 162.781 190.349 156.511 189.568 155.205C188.784 153.898 186.696 153.114 183.563 151.549C180.43 149.981 165.031 142.405 162.159 141.36C159.288 140.315 157.2 139.795 155.109 142.931C153.021 146.064 147.022 153.117 145.195 155.205C143.369 157.298 141.54 157.56 138.409 155.992C135.276 154.421 125.188 151.116 113.22 140.447C103.908 132.143 97.6221 121.892 95.7956 118.756C93.9691 115.623 95.6017 113.929 97.1697 112.366C98.5775 110.964 100.303 108.71 101.871 106.881C103.433 105.052 103.956 103.745 104.998 101.657C106.044 99.5667 105.521 97.7374 104.737 96.1694C103.953 94.6015 97.8666 79.1127 95.0819 72.9195Z" fill="#FBFBFB"/>
</svg>
